<svg width="51" height="122" viewBox="0 0 51 122" fill="none" xmlns="http://www.w3.org/2000/svg">
<path d="M20.98 43.5758C22.5446 42.6556 24.485 42.6556 26.0496 43.5758L33.6349 48.037L41.2911 52.3755C42.8703 53.2703 43.8405 54.9508 43.8259 56.7658L43.755 65.5655L43.8259 74.3652C43.8405 76.1803 42.8703 77.8607 41.2911 78.7556L33.6349 83.0941L26.0496 87.5553C24.485 88.4755 22.5446 88.4755 20.98 87.5553L13.3947 83.0941L5.73849 78.7556C4.15929 77.8607 3.1891 76.1803 3.20371 74.3652L3.27456 65.5655L3.20371 56.7658C3.1891 54.9508 4.15929 53.2703 5.73849 52.3755L13.3947 48.037L20.98 43.5758Z" fill="#12B669"/>
<path d="M21.4874 44.4375C22.739 43.7016 24.2915 43.7014 25.543 44.4375L33.128 48.8994L33.1417 48.9072L40.7979 53.2451C42.0613 53.961 42.8379 55.3058 42.8262 56.7578L42.7549 65.5576V65.5732L42.8262 74.373C42.8379 75.8251 42.0613 77.1698 40.7979 77.8857L33.1417 82.2236L33.1348 82.2285L33.128 82.2324L25.543 86.6934C24.2915 87.4294 22.739 87.4293 21.4874 86.6934L13.9014 82.2324L13.8946 82.2285L13.8878 82.2236L6.23151 77.8857C4.96815 77.1698 4.19247 75.8251 4.20416 74.373L4.27448 65.5732V65.5576L4.20416 56.7578C4.19247 55.3058 4.96815 53.961 6.23151 53.2451L13.8878 48.9072L13.9014 48.8994L21.4874 44.4375Z" stroke="#8F8F8F" stroke-opacity="0.5" stroke-width="2"/>
<path d="M25.6113 1.9834V35.3623C25.6113 37.1343 26.5492 38.7739 28.0765 39.6722L37.4812 45.2034L46.9036 50.5427C48.4828 51.4376 49.453 53.118 49.4383 54.9331L49.3512 65.7627L49.4383 76.5923C49.453 78.4074 48.4828 80.0878 46.9036 80.9827L37.4812 86.322L28.0765 91.8532C26.5492 92.7515 25.6113 94.3911 25.6113 96.1631V120.877" stroke="#8F8F8F" stroke-opacity="0.3" stroke-width="2" stroke-linecap="round"/>
<path d="M25.6115 101.202C27.3389 101.202 28.7394 102.603 28.7394 104.33C28.7394 106.057 27.3388 107.458 25.6115 107.458C23.8841 107.458 22.4837 106.057 22.4836 104.33C22.4836 102.603 23.8841 101.202 25.6115 101.202Z" fill="#B692F6" stroke="#F9FAFB"/>
<path d="M25.6115 101.202C27.3389 101.202 28.7394 102.603 28.7394 104.33C28.7394 106.057 27.3388 107.458 25.6115 107.458C23.8841 107.458 22.4837 106.057 22.4836 104.33C22.4836 102.603 23.8841 101.202 25.6115 101.202Z" fill="#F79009" stroke="#D2D6DB"/>
<path d="M25.6115 24.0654C27.3389 24.0655 28.7394 25.466 28.7394 27.1934C28.7394 28.9207 27.3388 30.3212 25.6115 30.3213C23.8841 30.3213 22.4837 28.9207 22.4836 27.1934C22.4836 25.4659 23.8841 24.0654 25.6115 24.0654Z" fill="#2E90FA" stroke="#D2D6DB"/>
<path d="M16.2077 61.398V59.0273C16.2077 57.141 16.9571 55.332 18.2909 53.9982C19.6247 52.6644 21.4337 51.915 23.32 51.915C25.2063 51.915 27.0153 52.6644 28.3491 53.9982C29.6829 55.332 30.4322 57.141 30.4322 59.0273V61.398H31.6176C32.2464 61.398 32.8494 61.6478 33.294 62.0924C33.7386 62.537 33.9884 63.14 33.9884 63.7688V73.2518C33.9884 73.8806 33.7386 74.4836 33.294 74.9282C32.8494 75.3728 32.2464 75.6226 31.6176 75.6226H15.0224C14.3936 75.6226 13.7906 75.3728 13.346 74.9282C12.9014 74.4836 12.6516 73.8806 12.6516 73.2518V63.7688C12.6516 62.4649 13.7184 61.398 15.0224 61.398H16.2077ZM22.1346 69.3756V72.0664H24.5054V69.3756C24.9573 69.1147 25.3106 68.7119 25.5103 68.2297C25.71 67.7476 25.745 67.213 25.61 66.7089C25.4749 66.2048 25.1773 65.7594 24.7632 65.4416C24.3492 65.1239 23.8419 64.9517 23.32 64.9517C22.7981 64.9517 22.2908 65.1239 21.8768 65.4416C21.4627 65.7594 21.1651 66.2048 21.03 66.7089C20.8949 67.213 20.93 67.7476 21.1297 68.2297C21.3294 68.7119 21.6827 69.1147 22.1346 69.3756ZM19.7639 59.0273V61.398H26.8761V59.0273C26.8761 58.0841 26.5015 57.1796 25.8346 56.5127C25.1677 55.8458 24.2631 55.4712 23.32 55.4712C22.3768 55.4712 21.4723 55.8458 20.8054 56.5127C20.1385 57.1796 19.7639 58.0841 19.7639 59.0273Z" fill="white"/>
</svg>
