<svg width="64" height="21" viewBox="0 0 64 21" fill="none" xmlns="http://www.w3.org/2000/svg">
<path d="M6.35163 1.93164C5.77143 2.20797 4.17852 3.71561 3.02339 6.14821C1.69499 8.94569 0.673142 11.5497 2.99288 15.8998C4.10018 17.9763 7.52344 19.0625 10.234 19.4373C15.5071 20.1665 21.9366 17.4309 26.6916 15.7948C30.9316 14.336 42.093 10.0205 49.4333 6.68958C53.0296 5.05762 55.4443 3.66763 56.4111 3.79922C56.8315 3.85643 56.907 4.61378 56.8517 5.30172C56.5872 8.59592 54.028 11.6818 53.3098 13.8029C53.0269 14.6385 56.1223 13.2679 58.3346 12.0974C59.098 11.6935 59.4289 12.4467 59.4654 13.2524C59.5019 14.058 59.3098 15.0903 59.4724 15.7653C59.6349 16.4402 60.1578 16.7264 60.7783 16.8739C61.3987 17.0214 62.1009 17.0214 62.8243 17.0214" stroke="#7F98F9" stroke-width="2" stroke-linecap="round"/>
</svg>
