<svg width="26" height="20" viewBox="0 0 26 20" fill="none" xmlns="http://www.w3.org/2000/svg">
<path d="M1.96674 14.2006C2.61858 13.4857 5.43929 11.1227 10.2417 7.17275C13.0338 4.87632 16.5433 3.30256 18.4711 1.7482C21.5331 -0.720754 13.0199 8.59675 11.6849 11.2248C11.3896 11.8062 11.1537 12.4089 12.9081 11.3873C14.6626 10.3657 18.4393 7.71347 20.3245 6.66672C22.2097 5.61997 22.0889 6.25902 21.4609 7.578C19.8535 10.9534 18.3758 13.5415 18.4486 14.5795C18.5217 15.6216 21.3742 14.8856 23.7338 14.5281C24.1675 14.7344 24.4195 15.3119 24.5492 15.9757C24.679 16.6395 24.679 17.3721 24.679 18.127" stroke="#F79009" stroke-width="2" stroke-linecap="round"/>
</svg>
