<svg width="340" height="204" viewBox="0 0 340 204" fill="none" xmlns="http://www.w3.org/2000/svg">
<path d="M325.217 0H14.7826C6.6184 0 0 6.25575 0 13.9726V190.027C0 197.744 6.6184 204 14.7826 204H325.217C333.382 204 340 197.744 340 190.027V13.9726C340 6.25575 333.382 0 325.217 0Z" fill="#1573FF"/>
<mask id="mask0_1569_178" style="mask-type:alpha" maskUnits="userSpaceOnUse" x="0" y="0" width="340" height="204">
<path d="M325.217 0H14.7826C6.6184 0 0 6.25575 0 13.9726V190.027C0 197.744 6.6184 204 14.7826 204H325.217C333.382 204 340 197.744 340 190.027V13.9726C340 6.25575 333.382 0 325.217 0Z" fill="#DAEBFF"/>
</mask>
<g mask="url(#mask0_1569_178)">
<path d="M47.7227 322.172C149.192 322.172 231.449 244.422 231.449 148.513C231.449 52.6031 149.192 -25.147 47.7227 -25.147C-53.7467 -25.147 -136.004 52.6031 -136.004 148.513C-136.004 244.422 -53.7467 322.172 47.7227 322.172Z" fill="#6543CC"/>
<path d="M331.555 127.749C386.372 127.749 430.81 85.7457 430.81 33.9324C430.81 -17.8808 386.372 -59.8838 331.555 -59.8838C276.739 -59.8838 232.301 -17.8808 232.301 33.9324C232.301 85.7457 276.739 127.749 331.555 127.749Z" fill="#4EB4FF"/>
</g>
</svg>
