<svg width="56" height="120" viewBox="0 0 56 120" fill="none" xmlns="http://www.w3.org/2000/svg">
<path d="M0.128021 39.4449C14.6722 39.4449 26.4625 30.7174 26.4625 19.9514C26.4625 9.18552 14.6722 0.458008 0.128021 0.458008V39.4449Z" fill="#7F98F9"/>
<path d="M29.103 39.4449C43.6471 39.4449 55.4375 30.7174 55.4375 19.9514C55.4375 9.18552 43.6471 0.458008 29.103 0.458008V39.4449Z" fill="#12B669"/>
<path d="M29.0349 99.5908L3.37576 119.084H29.0349V99.5908Z" fill="#FEC84B"/>
<path d="M55.4375 79.0977L29.7783 98.5911H55.4375V79.0977Z" fill="#FA8C2F"/>
<path d="M55.8784 99.5908L30.2192 119.084H55.8784V99.5908Z" fill="#12B669"/>
<ellipse cx="42.5774" cy="72.3271" rx="13.0418" ry="12.4629" fill="#84CAFF"/>
<path d="M29.0349 52.6493C29.0349 45.2367 35.044 39.2275 42.4566 39.2275C49.8692 39.2275 55.8784 45.2367 55.8784 52.6493V58.4807H29.0349V52.6493Z" fill="#6466F1"/>
<path d="M0.137299 56.6493C0.137299 49.2366 6.14641 43.2275 13.559 43.2275C20.9716 43.2275 26.9807 49.2366 26.9807 56.6493V89.369C26.9807 96.7816 20.9716 102.791 13.559 102.791C6.14641 102.791 0.137299 96.7816 0.137299 89.369V56.6493Z" fill="#F79009"/>
</svg>
