<svg width="25" height="24" viewBox="0 0 25 24" fill="none" xmlns="http://www.w3.org/2000/svg">
<path d="M18.6221 7.37793C18.8979 7.37817 19.1218 7.60214 19.1221 7.87793V19.5264C19.1221 20.3546 18.4503 21.0261 17.6221 21.0264H7.94629C7.11786 21.0264 6.44629 20.3548 6.44629 19.5264V7.87793C6.44653 7.60199 6.6703 7.37793 6.94629 7.37793C7.22212 7.37811 7.44605 7.60211 7.44629 7.87793V19.5264C7.44629 19.8025 7.67015 20.0264 7.94629 20.0264H17.6221C17.898 20.0261 18.1221 19.8024 18.1221 19.5264V7.87793C18.1223 7.60199 18.3461 7.37793 18.6221 7.37793ZM10.8379 10.377C11.1139 10.377 11.3377 10.601 11.3379 10.877V16.6348C11.3379 16.9109 11.114 17.1347 10.8379 17.1348C10.5618 17.1348 10.3379 16.9109 10.3379 16.6348V10.877C10.3381 10.601 10.5619 10.377 10.8379 10.377ZM14.7295 10.2969C15.0055 10.2969 15.2293 10.5209 15.2295 10.7969V16.5547C15.2295 16.8308 15.0056 17.0547 14.7295 17.0547C14.4535 17.0545 14.2295 16.8307 14.2295 16.5547V10.7969C14.2297 10.521 14.4536 10.297 14.7295 10.2969ZM15.0508 3.00781C15.8071 3.08468 16.3975 3.72339 16.3975 4.5V5.51367H20.5674C20.8434 5.51367 21.0673 5.73764 21.0674 6.01367C21.0674 6.28981 20.8435 6.51367 20.5674 6.51367H5C4.72386 6.51367 4.5 6.28981 4.5 6.01367C4.50012 5.73763 4.72393 5.51367 5 5.51367H9.68945V4.5C9.68945 3.67157 10.361 3 11.1895 3H14.8975L15.0508 3.00781ZM11.1895 4C10.9133 4 10.6895 4.22386 10.6895 4.5V5.51367H15.3975V4.5C15.3975 4.25834 15.2259 4.05635 14.998 4.00977L14.8975 4H11.1895Z" fill="currentColor"/>
</svg>
