<svg width="16" height="16" viewBox="0 0 16 16" fill="none" xmlns="http://www.w3.org/2000/svg">
<path d="M9.18848 0.293945C9.5782 -0.0972096 10.211 -0.0982492 10.6016 0.291992L13.2471 2.9375C13.6376 3.32792 13.6387 3.96126 13.249 4.35254L5.10742 12.5254C4.97097 12.6623 4.79729 12.7565 4.6084 12.7969L1.20801 13.5225C0.492369 13.6751 -0.13935 13.0303 0.0263672 12.3164L0.817383 8.9082C0.859604 8.72678 0.951717 8.56064 1.08301 8.42871L9.18848 0.293945ZM1.25293 11.4473L2.11035 12.3057L4.03906 11.8945L1.69531 9.54688L1.25293 11.4473ZM2.24316 8.68066L4.88672 11.3291L10.6465 5.54785L8.00195 2.90039L2.24316 8.68066ZM8.70801 2.19141L11.3516 4.83984L12.542 3.64551L9.89551 1.00098L8.70801 2.19141Z" fill="currentColor"/>
</svg>
