<svg width="21" height="23" viewBox="0 0 21 23" fill="none" xmlns="http://www.w3.org/2000/svg">
<path d="M7.5801 22H3.05133C1.94676 22 1.05133 21.1046 1.05133 20V9.54591C1.05133 8.93848 1.32738 8.36397 1.80163 7.98442L9.27508 2.0032C10.0074 1.41714 11.0485 1.41867 11.7791 2.0069L19.203 7.98449C19.6745 8.36414 19.9487 8.93692 19.9487 9.54228V20C19.9487 21.1046 19.0532 22 17.9487 22H13.4244M7.5801 22V14C7.5801 13.4477 8.02781 13 8.5801 13H12.4244C12.9767 13 13.4244 13.4477 13.4244 14V22M7.5801 22H13.4244" stroke="currentColor" stroke-width="1.2"
/>
</svg>
