<svg width="16" height="16" viewBox="0 0 16 16" fill="none" xmlns="http://www.w3.org/2000/svg">
  <path d="M8.3418 1.3418C11.8641 1.52036 14.6649 4.43332 14.665 8L14.6562 8.34277C14.4777 11.8651 11.5657 14.6658 7.99902 14.666L7.65527 14.6572C4.24678 14.4841 1.51362 11.7514 1.34082 8.34277L1.33203 8C1.33221 4.31836 4.31738 1.33318 7.99902 1.33301L8.3418 1.3418ZM7.99902 2.33301C4.86967 2.33318 2.33221 4.87064 2.33203 8C2.33221 11.1294 4.86967 13.6658 7.99902 13.666C11.1284 13.6658 13.6649 11.1294 13.665 8C13.6649 4.87064 11.1284 2.33318 7.99902 2.33301Z" fill="currentColor"/>
  <path d="M8 11.3334L8 6.66671" stroke="currentColor" stroke-linecap="round" stroke-linejoin="round"/>
  <path d="M8 4.67334L8 4.66667" stroke="currentColor" stroke-linecap="round" stroke-linejoin="round"/>
</svg>
