<svg width="24" height="25" viewBox="0 0 24 25" fill="none" xmlns="http://www.w3.org/2000/svg">
<path d="M10.542 1.17188C15.7769 1.17206 20.0203 5.56735 20.0205 10.9893C20.0205 13.4283 19.1596 15.6579 17.7383 17.375L22.7236 22.5391C23.0084 22.834 23.0083 23.3115 22.7236 23.6064C22.4706 23.8686 22.0781 23.8981 21.7939 23.6943L21.6924 23.6064L16.707 18.4424C15.0493 19.9151 12.8972 20.8075 10.542 20.8076C5.30679 20.8076 1.0625 16.4114 1.0625 10.9893C1.06267 5.56724 5.3069 1.17188 10.542 1.17188ZM10.542 2.68262C6.11231 2.68262 2.52068 6.40142 2.52051 10.9893C2.52051 15.5772 6.11221 19.2969 10.542 19.2969C14.9716 19.2967 18.5625 15.5771 18.5625 10.9893C18.5623 6.40153 14.9715 2.6828 10.542 2.68262Z" fill="currentColor"/>
</svg>
