<svg width="23" height="22" viewBox="0 0 23 22" fill="none" xmlns="http://www.w3.org/2000/svg">
<path d="M12.3865 21.004H10.6822C10.142 21.004 9.69502 20.5663 9.69502 20.0168V18.2778C9.69502 18.2324 9.66441 18.1928 9.62062 18.1808C9.00192 18.0112 8.40775 17.7696 7.85288 17.4485C7.81331 17.4256 7.76321 17.4318 7.73089 17.4641L6.50063 18.6944C6.32369 18.8713 6.06292 18.9737 5.80215 18.9737C5.54139 18.9737 5.28062 18.8713 5.10367 18.685L3.89297 17.4837C3.70671 17.2974 3.60427 17.0459 3.60427 16.7852C3.60427 16.5244 3.70671 16.273 3.89297 16.0867L5.12323 14.8564C5.15556 14.8241 5.16178 14.774 5.13885 14.7345C4.81721 14.1797 4.56793 13.5854 4.40576 12.959C4.39423 12.9144 4.35424 12.883 4.30823 12.883H2.57052C2.03036 12.883 1.58333 12.4453 1.58333 11.8958V10.1915C1.58333 9.93076 1.68578 9.67931 1.87204 9.49304C2.0583 9.30678 2.30044 9.20434 2.57052 9.20434H4.30849C4.35438 9.20434 4.3943 9.17309 4.40594 9.1287C4.56823 8.50998 4.81769 7.91551 5.13955 7.35265C5.16212 7.31319 5.15576 7.26343 5.12361 7.23128L3.89297 6.00064C3.70671 5.81438 3.60427 5.56293 3.60427 5.30216C3.60427 5.0414 3.70671 4.78994 3.89297 4.60368L5.10367 3.39298C5.48551 3.01115 6.1188 3.01115 6.50063 3.39298L7.73089 4.62324C7.76321 4.65557 7.81331 4.66179 7.85286 4.63886C8.40759 4.31722 9.00188 4.06794 9.62837 3.90577C9.67291 3.89424 9.70433 3.85425 9.70433 3.80824V2.07053C9.70433 1.53037 10.1514 1.08334 10.6915 1.08334H12.3958C12.936 1.08334 13.383 1.53037 13.383 2.07053V3.80954C13.383 3.85494 13.4136 3.89459 13.4574 3.90658C14.0765 4.07625 14.6714 4.31811 15.2347 4.63959C15.2741 4.66212 15.3239 4.65577 15.356 4.62362L16.5867 3.39298C16.9685 3.01115 17.5925 3.01115 17.9836 3.39298L19.1943 4.60368C19.3806 4.78994 19.483 5.0414 19.483 5.30216C19.483 5.56293 19.3806 5.81438 19.1943 6.00064L17.9641 7.2309C17.9318 7.26322 17.9255 7.31332 17.9485 7.35287C18.2701 7.9076 18.5194 8.50189 18.6816 9.12838C18.6931 9.17292 18.7331 9.20434 18.7791 9.20434H20.5168C21.057 9.20434 21.504 9.64205 21.504 10.1915V11.8958C21.504 12.1659 21.4015 12.408 21.2153 12.5943C21.0383 12.7806 20.7869 12.883 20.5168 12.883H18.7781C18.7325 12.883 18.6928 12.9138 18.6809 12.9577C18.5114 13.5847 18.2697 14.1794 17.9484 14.7345C17.9255 14.774 17.9318 14.8241 17.9641 14.8564L19.1943 16.0867C19.5762 16.4685 19.5762 17.0925 19.1943 17.4837L17.9836 18.6944C17.6298 19.0576 16.9499 19.0576 16.5867 18.6944L15.3564 17.4641C15.3241 17.4318 15.274 17.4255 15.2345 17.4485C14.6797 17.7701 14.0854 18.0194 13.4589 18.1816C13.4144 18.1931 13.383 18.2331 13.383 18.2791V20.0168C13.383 20.557 12.9453 21.004 12.3958 21.004H12.3865ZM11.5297 7.63974C9.64845 7.63974 8.11179 9.16709 8.11179 11.0576C8.11179 12.9482 9.63914 14.4755 11.5297 14.4755C13.4202 14.4755 14.9476 12.9389 14.9476 11.0576C14.9476 9.1764 13.4202 7.63974 11.5297 7.63974Z" stroke="currentColor" stroke-width="1.2" stroke-miterlimit="10"/>
</svg>
